<svg width="16" height="16" viewBox="0 0 16 16" fill="none" xmlns="http://www.w3.org/2000/svg">
<path d="M2.66671 2.66667H4.66671L6.00004 1.33334H10L11.3334 2.66667H13.3334C13.687 2.66667 14.0261 2.80714 14.2762 3.05719C14.5262 3.30724 14.6667 3.64638 14.6667 4V12C14.6667 12.3536 14.5262 12.6928 14.2762 12.9428C14.0261 13.1929 13.687 13.3333 13.3334 13.3333H2.66671C2.31309 13.3333 1.97395 13.1929 1.7239 12.9428C1.47385 12.6928 1.33337 12.3536 1.33337 12V4C1.33337 3.64638 1.47385 3.30724 1.7239 3.05719C1.97395 2.80714 2.31309 2.66667 2.66671 2.66667ZM8.00004 4.66667C7.11599 4.66667 6.26814 5.01786 5.64302 5.64298C5.0179 6.2681 4.66671 7.11595 4.66671 8C4.66671 8.88406 5.0179 9.7319 5.64302 10.357C6.26814 10.9821 7.11599 11.3333 8.00004 11.3333C8.8841 11.3333 9.73194 10.9821 10.3571 10.357C10.9822 9.7319 11.3334 8.88406 11.3334 8C11.3334 7.11595 10.9822 6.2681 10.3571 5.64298C9.73194 5.01786 8.8841 4.66667 8.00004 4.66667ZM8.00004 6C8.53047 6 9.03918 6.21072 9.41426 6.58579C9.78933 6.96086 10 7.46957 10 8C10 8.53044 9.78933 9.03914 9.41426 9.41422C9.03918 9.78929 8.53047 10 8.00004 10C7.46961 10 6.9609 9.78929 6.58583 9.41422C6.21075 9.03914 6.00004 8.53044 6.00004 8C6.00004 7.46957 6.21075 6.96086 6.58583 6.58579C6.9609 6.21072 7.46961 6 8.00004 6Z" fill="white"/>
</svg>
