<svg width="28" height="28" viewBox="0 0 28 28" fill="none" xmlns="http://www.w3.org/2000/svg">
<path d="M14 15.1667C14.6444 15.1667 15.1667 14.6443 15.1667 14C15.1667 13.3557 14.6444 12.8333 14 12.8333C13.3557 12.8333 12.8334 13.3557 12.8334 14C12.8334 14.6443 13.3557 15.1667 14 15.1667Z" fill="black"/>
<path d="M18.6667 15.1667C19.311 15.1667 19.8333 14.6443 19.8333 14C19.8333 13.3557 19.311 12.8333 18.6667 12.8333C18.0223 12.8333 17.5 13.3557 17.5 14C17.5 14.6443 18.0223 15.1667 18.6667 15.1667Z" fill="black"/>
<path d="M9.33329 15.1667C9.97762 15.1667 10.5 14.6443 10.5 14C10.5 13.3557 9.97762 12.8333 9.33329 12.8333C8.68896 12.8333 8.16663 13.3557 8.16663 14C8.16663 14.6443 8.68896 15.1667 9.33329 15.1667Z" fill="black"/>
<path d="M22.2483 5.75167C20.3341 3.82492 17.8076 2.62642 15.1044 2.36279C12.4012 2.09915 9.69076 2.78691 7.4403 4.30749C5.18984 5.82807 3.54042 8.08618 2.77641 10.6925C2.01239 13.2989 2.18165 16.0901 3.25502 18.585C3.36689 18.8169 3.40359 19.0779 3.36002 19.3317L2.33335 24.2667C2.29379 24.4559 2.30187 24.652 2.35685 24.8373C2.41184 25.0226 2.512 25.1913 2.64835 25.3283C2.76012 25.4393 2.8932 25.5265 3.03957 25.5846C3.18594 25.6428 3.34257 25.6707 3.50002 25.6667H3.73335L8.72668 24.6633C8.98047 24.6328 9.23782 24.669 9.47335 24.7683C11.9683 25.8417 14.7595 26.011 17.3658 25.2469C19.9722 24.4829 22.2303 22.8335 23.7509 20.5831C25.2714 18.3326 25.9592 15.6221 25.6956 12.9189C25.4319 10.2158 24.2334 7.68926 22.3067 5.77501L22.2483 5.75167ZM23.2167 15.505C22.9886 16.898 22.4475 18.2211 21.6342 19.3747C20.8208 20.5284 19.7564 21.4825 18.521 22.1653C17.2856 22.8482 15.9115 23.2419 14.5019 23.3169C13.0924 23.3919 11.6842 23.1462 10.3833 22.5983C9.92198 22.4021 9.42637 22.299 8.92502 22.295C8.70601 22.2965 8.4875 22.316 8.27168 22.3533L4.98168 23.0183L5.64668 19.7283C5.77913 19.0158 5.69375 18.2799 5.40168 17.6167C4.85381 16.3158 4.60812 14.9076 4.68312 13.4981C4.75812 12.0885 5.15185 10.7144 5.83468 9.479C6.51751 8.24362 7.47165 7.1792 8.62529 6.36586C9.77894 5.55252 11.102 5.01144 12.495 4.78334C13.9572 4.54337 15.4554 4.65497 16.8659 5.10891C18.2764 5.56284 19.5585 6.34607 20.6062 7.3938C21.654 8.44153 22.4372 9.72365 22.8911 11.1341C23.345 12.5446 23.4566 14.0429 23.2167 15.505Z" fill="black"/>
</svg>
