<svg width="28" height="28" viewBox="0 0 28 28" fill="none" xmlns="http://www.w3.org/2000/svg">
<path d="M24.822 4.27979C24.9358 4.3387 25.0311 4.42767 25.0978 4.53703C25.1644 4.64638 25.1998 4.77193 25.2 4.89999V18.2C25.2002 18.3126 25.1731 18.4236 25.1212 18.5235C25.0693 18.6234 24.9941 18.7094 24.9018 18.774L17.9018 23.674C17.7841 23.7565 17.6438 23.8008 17.5 23.8008C17.3563 23.8008 17.216 23.7565 17.0982 23.674L10.5 19.054L3.90185 23.674C3.79691 23.7476 3.67378 23.7909 3.5459 23.7993C3.41802 23.8077 3.29029 23.7808 3.17663 23.7216C3.06297 23.6624 2.96775 23.5731 2.90135 23.4635C2.83494 23.3539 2.7999 23.2281 2.80005 23.1V9.79999C2.79992 9.68738 2.82696 9.57641 2.87887 9.47648C2.93079 9.37655 3.00604 9.29063 3.09825 9.22599L10.0982 4.32599C10.216 4.24346 10.3563 4.19919 10.5 4.19919C10.6438 4.19919 10.7841 4.24346 10.9018 4.32599L17.5 8.94599L24.0982 4.32599C24.2033 4.25265 24.3265 4.20956 24.4544 4.20142C24.5823 4.19327 24.7099 4.22038 24.8235 4.27979H24.822ZM16.8 10.164L11.2 6.24399V17.836L16.8 21.756V10.164ZM18.2 21.756L23.8 17.836V6.24399L18.2 10.164V21.756ZM9.80005 17.836V6.24399L4.20005 10.164V21.756L9.80005 17.836Z" fill="black"/>
</svg>
