<svg width="28" height="28" viewBox="0 0 28 28" fill="none" xmlns="http://www.w3.org/2000/svg">
<path d="M4.66669 21C4.66669 19.7623 5.15835 18.5753 6.03352 17.7001C6.90869 16.825 8.09568 16.3333 9.33335 16.3333H18.6667C19.9044 16.3333 21.0913 16.825 21.9665 17.7001C22.8417 18.5753 23.3334 19.7623 23.3334 21C23.3334 21.6188 23.0875 22.2123 22.6499 22.6499C22.2124 23.0875 21.6189 23.3333 21 23.3333H7.00002C6.38118 23.3333 5.78769 23.0875 5.3501 22.6499C4.91252 22.2123 4.66669 21.6188 4.66669 21Z" stroke="black" stroke-width="2" stroke-linejoin="round"/>
<path d="M14 11.6667C15.933 11.6667 17.5 10.0997 17.5 8.16666C17.5 6.23366 15.933 4.66666 14 4.66666C12.067 4.66666 10.5 6.23366 10.5 8.16666C10.5 10.0997 12.067 11.6667 14 11.6667Z" stroke="black" stroke-width="2"/>
</svg>
